<svg xmlns="http://www.w3.org/2000/svg" width="25" height="25" viewBox="0 0 25 25"><defs><style>.a{fill:#fff;}</style></defs><path class="a" d="M12.5,0A12.5,12.5,0,1,0,25,12.5,12.5,12.5,0,0,0,12.5,0Zm0,24.219A11.719,11.719,0,1,1,24.219,12.5,11.732,11.732,0,0,1,12.5,24.219Z"/><path class="a" d="M36.391,18H34.8a.8.8,0,0,0-.8.8V28.36a.8.8,0,0,0,.8.8h1.594a.8.8,0,0,0,.8-.8V18.8A.8.8,0,0,0,36.391,18Zm0,10.36H34.8V18.8h1.594Z" transform="translate(-20.757 -11.078)"/><path class="a" d="M24.391,18H22.8a.8.8,0,0,0-.8.8V28.36a.8.8,0,0,0,.8.8h1.594a.8.8,0,0,0,.8-.8V18.8A.8.8,0,0,0,24.391,18Zm0,10.36H22.8V18.8h1.594Z" transform="translate(-13.431 -11.078)"/></svg>